<?xml version="1.0" encoding="UTF-8"?>
<!DOCTYPE svg PUBLIC "-//W3C//DTD SVG 1.1//EN" "http://www.w3.org/Graphics/SVG/1.1/DTD/svg11.dtd">
<!-- Creator: CorelDRAW -->
<svg xmlns="http://www.w3.org/2000/svg" xml:space="preserve" width="46.35mm" height="37.329mm" version="1.1" style="shape-rendering:geometricPrecision; text-rendering:geometricPrecision; image-rendering:optimizeQuality; fill-rule:evenodd; clip-rule:evenodd"
viewBox="0 0 4635 3732.9"
 xmlns:xlink="http://www.w3.org/1999/xlink"
 xmlns:xodm="http://www.corel.com/coreldraw/odm/2003">
 <defs>
  <style type="text/css">
   <![CDATA[
    .fil0 {fill:url(#id0);fill-rule:nonzero}
   ]]>
  </style>
  <linearGradient id="id0" gradientUnits="userSpaceOnUse" x1="2554.53" y1="3312.32" x2="3407.46" y2="-132.49">
   <stop offset="0" style="stop-opacity:1; stop-color:#CCA86B"/>
   <stop offset="0.431373" style="stop-opacity:1; stop-color:#EBC689"/>
   <stop offset="0.490196" style="stop-opacity:1; stop-color:#FFECCC"/>
   <stop offset="0.580392" style="stop-opacity:1; stop-color:#EECA8B"/>
   <stop offset="1" style="stop-opacity:1; stop-color:#B98834"/>
  </linearGradient>
 </defs>
 <g id="Capa_x0020_1">
  <metadata id="CorelCorpID_0Corel-Layer"/>
  <path class="fil0" d="M4548.28 3732.89l0 -448.71c0,-101.98 2.35,-218.68 4.73,-337.84 10.41,-518.74 21.82,-1087.45 -168.71,-1544.28 -164.59,-394.63 -443.84,-730.68 -795.5,-965.88 -340.83,-227.95 -749.88,-361.17 -1188.67,-361.17l-179.34 0c-468.87,0 -903.9,152.23 -1258.09,409.67 -363.74,264.4 -642.28,639.77 -784.7,1075.16 -105.71,323.17 -105.62,569.65 -105.52,885.49l0.01 30.89 0.15 0 0 1256.67 -75 0 0 -1256.67 0.15 0 -0.01 -30.89c-0.11,-322.82 -0.19,-574.76 109.02,-908.63 147.41,-450.65 435.62,-839.1 811.96,-1112.66 366.6,-266.47 816.83,-424.03 1302.03,-424.03l179.34 0c453.88,0 877.27,137.98 1230.27,374.07 363.84,243.35 652.77,591.01 823.04,999.26 196.42,470.94 184.83,1048.05 174.27,1574.46 -2.23,111.59 -4.43,220.82 -4.43,336.38l0 448.71 -75 0z"/>
 </g>
</svg>
